<svg width="1456" height="1461" viewBox="0 0 1456 1461" fill="none" xmlns="http://www.w3.org/2000/svg">
<path d="M1287.04 1417.78C1285.85 1420.09 1285.23 1423.14 1283.36 1424.58C1269.99 1434.92 1257.79 1447.09 1242.02 1453.84C1231.91 1458.17 1221.13 1460.6 1209.99 1460.66C1204.65 1460.69 1199.32 1460.79 1193.99 1460.79C831.764 1460.79 469.536 1460.8 107.308 1460.78C93.3379 1460.78 79.4031 1461.15 65.8074 1456.41C55.327 1452.75 45.6715 1447.95 37.2075 1440.83C24.8615 1430.44 14.0263 1418.68 8.15455 1403.43C4.27278 1393.36 -0.734667 1383.45 0.128065 1371.98C0.626356 1365.35 0.121839 1358.65 0.121778 1351.99C0.116712 992.095 0.117139 632.199 0.118482 272.304C0.118482 267.306 0.37544 262.294 0.104383 257.311C-1.03374 236.39 7.27675 218.555 18.114 201.543C20.6077 197.628 23.4528 193.938 27.0294 189.34C47.2141 169.242 70.3425 159.489 97.7872 159.496C365.722 159.573 633.656 159.57 901.59 159.483C919.354 159.477 935.658 163.638 951.078 172.565C971.67 184.487 984.963 202.409 992.062 224.297C995.778 235.755 996.291 248.599 996.374 260.83C996.78 320.813 996.554 380.799 996.554 440.785C996.553 488.106 996.346 535.43 996.738 582.748C996.814 591.928 997.183 602.074 1001.02 610.043C1008.11 624.799 1020.24 634.306 1038.09 634.069C1049.4 633.919 1060.73 634.722 1072.05 634.747C1113.7 634.84 1155.36 634.569 1197.01 634.942C1207.23 635.033 1217.65 636.101 1227.6 638.371C1250.57 643.614 1268.67 656.545 1281.59 676.296C1287.57 685.441 1293.03 695.223 1294.42 706.111C1296.03 718.612 1296.47 731.333 1296.48 743.959C1296.59 944.243 1296.56 1144.53 1296.55 1344.81C1296.55 1351.14 1296.77 1357.5 1296.25 1363.8C1295.6 1371.71 1295.48 1379.99 1292.96 1387.36C1289.89 1396.33 1284.61 1404.55 1280.18 1413.04C1278.79 1415.69 1277.34 1418.16 1279.77 1421.36C1282.41 1420.06 1284.73 1418.92 1287.04 1417.78ZM649.957 520.778C649.967 510.81 650.564 500.796 649.779 490.891C649.27 484.47 647.887 477.6 644.897 471.998C637.322 457.803 624.518 451.964 608.602 452.002C564.736 452.109 520.87 452.004 477.003 452.084C473.762 452.09 470.523 452.908 467.071 451.431C465.333 443.634 465.334 443.451 457.574 443.409C436.581 443.295 415.586 443.346 394.592 443.345C387.941 443.345 381.708 444.91 375.2 446.554C358.309 450.821 345.791 471.436 345.991 487.319C346.413 520.637 346.116 553.965 346.104 587.289C346.102 594.264 346.634 600.81 349.869 607.519C357.015 622.337 367.251 632.242 384.153 633.831C389.779 634.359 395.444 634.744 401.091 634.75C463.406 634.814 525.722 634.83 588.037 634.745C597.353 634.733 606.68 634.312 615.978 633.711C619.556 633.48 623.28 632.727 626.574 631.346C644.957 623.64 652.595 607.984 653.901 589.688C655.273 570.457 654.209 551.054 654.282 531.727C654.296 527.828 653.597 524.426 649.957 520.778ZM951.087 996.762C950.738 984.795 950.6 972.817 949.983 960.863C949.279 947.222 941.281 938.606 929.935 932.038C921.587 927.206 912.684 927.623 903.729 927.621C761.827 927.594 619.924 927.592 478.021 927.64C474.401 927.641 470.781 928.276 466.899 926.846C466.826 920.342 462.593 919.629 457.388 919.656C433.066 919.781 408.744 919.712 384.422 919.843C381.476 919.858 378.314 920.111 375.627 921.189C358.351 928.12 345.867 944.117 346.041 964.139C346.336 998.122 346.363 1032.11 346.027 1066.09C345.854 1083.6 358.907 1103.29 374.992 1107.2C381.99 1108.9 389.354 1109.85 396.553 1109.85C565.813 1109.99 735.073 1109.96 904.333 1109.96C907.664 1109.96 911.018 1110.14 914.324 1109.83C927.636 1108.59 938.31 1102.45 946.025 1091.6C952.416 1082.6 953.803 1071.86 954.207 1061.34C954.871 1044.04 954.606 1026.69 954.239 1009.38C954.161 1005.7 951.967 1002.06 951.087 996.762Z" fill="#5B5A5A"/>
<path d="M1287.65 1417.55C1284.73 1418.92 1282.41 1420.06 1279.77 1421.36C1277.34 1418.16 1278.79 1415.69 1280.18 1413.04C1284.61 1404.55 1289.89 1396.33 1292.96 1387.36C1295.48 1379.99 1295.6 1371.71 1296.25 1363.8C1296.77 1357.5 1296.55 1351.14 1296.55 1344.81C1296.56 1144.53 1296.59 944.243 1296.48 743.959C1296.47 731.333 1296.03 718.612 1294.42 706.111C1293.03 695.223 1287.57 685.441 1281.59 676.296C1268.67 656.545 1250.57 643.614 1227.6 638.371C1217.65 636.101 1207.23 635.033 1197.01 634.942C1155.36 634.569 1113.7 634.84 1072.05 634.747C1060.73 634.722 1049.4 633.919 1038.09 634.069C1020.24 634.306 1008.11 624.799 1001.02 610.043C997.183 602.074 996.814 591.928 996.738 582.748C996.346 535.43 996.553 488.106 996.554 440.785C996.554 380.799 996.78 320.813 996.374 260.83C996.291 248.599 995.778 235.755 992.062 224.297C984.963 202.409 971.67 184.487 951.078 172.565C935.658 163.638 919.354 159.477 901.59 159.483C633.656 159.57 365.721 159.573 97.7871 159.496C70.3424 159.489 47.214 169.242 27.5802 188.729C23.1592 184.795 27.737 182.536 29.531 180.218C35.222 172.865 41.1711 165.689 47.3675 158.755C72.4215 130.718 97.1715 102.389 122.886 74.9668C141.779 54.8192 162.256 36.1161 185.259 20.6697C196.184 13.3335 208.154 7.37001 220.169 1.93111C225.026 -0.267258 231.268 0.146255 236.88 0.135513C297.539 0.0196074 358.199 0.0526281 418.858 0.0517121C628.166 0.0486601 837.475 0.0478056 1046.78 0.0492096C1051.45 0.0492096 1056.12 -0.105881 1060.78 0.134598C1098.04 2.0591 1125.21 19.8322 1143.55 52.1489C1152.62 68.1325 1154.56 85.1793 1154.53 103.097C1154.33 224.416 1154.37 345.735 1154.59 467.053C1154.6 474.538 1155.88 482.337 1158.24 489.437C1163.59 505.549 1176.16 512.664 1192.48 513.879C1197.12 514.224 1201.81 514.064 1206.47 514.065C1255.47 514.078 1304.46 513.758 1353.45 514.303C1365.64 514.439 1377.83 517.217 1389.96 519.121C1392.31 519.49 1396.92 519.187 1393.79 524.998C1391.67 526.309 1390.4 526.798 1389.41 527.624C1359.34 552.712 1329.63 578.183 1303.92 607.915C1295.66 617.465 1287.48 627.077 1279.26 636.661C1273.45 643.441 1272.6 653.596 1277.45 658.297C1284.8 665.428 1289.69 665.335 1298.96 657.384C1309.55 648.299 1319.81 638.84 1330.46 629.829C1358.25 606.314 1380.18 577.427 1403.97 550.233C1409.15 544.313 1410.66 538.183 1407.15 531.02C1407.24 530.096 1407.33 529.172 1407.62 526.365C1414.77 532.327 1421.44 537.081 1427.14 542.796C1440.08 555.758 1448.44 571.518 1453.29 589.117C1454.08 591.966 1454.27 595.037 1454.35 598.016C1454.58 606.673 1454.71 615.336 1454.71 623.997C1454.73 821.233 1454.73 1018.47 1454.73 1215.7C1458.42 1238.74 1447.88 1256.7 1434.55 1273.96C1409.07 1306.97 1380.25 1336.84 1349.51 1364.86C1333.06 1379.84 1315.6 1393.71 1298.62 1408.12C1295.1 1411.11 1291.71 1414.25 1287.65 1417.55ZM1006.84 165.01C1019.42 153.686 1031.85 142.201 1044.6 131.075C1067.71 110.897 1085.81 86.1405 1106.49 63.736C1111.65 58.1358 1116.01 51.7946 1121.04 46.0523C1124.21 42.4236 1124.09 39.5714 1121.47 35.4752C1116.07 26.9966 1107.34 24.6027 1098.87 32.2563C1078.68 50.5013 1057.61 67.8639 1038.5 87.1804C1015.7 110.236 994.528 134.906 972.831 159.04C970.787 161.313 968.722 164.841 968.92 167.626C969.648 177.863 983.262 184.194 991.555 178.244C996.621 174.608 1001 170.02 1006.84 165.01Z" fill="#FDC109"/>
<path d="M1406.35 530.306C1410.67 538.183 1409.15 544.313 1403.97 550.233C1380.18 577.427 1358.25 606.314 1330.46 629.83C1319.81 638.84 1309.55 648.299 1298.96 657.384C1289.7 665.335 1284.8 665.428 1277.45 658.297C1272.6 653.596 1273.45 643.442 1279.26 636.662C1287.48 627.077 1295.66 617.465 1303.92 607.915C1329.63 578.183 1359.34 552.712 1389.41 527.624C1390.4 526.798 1391.68 526.309 1393.28 525.529C1397.69 526.794 1401.62 528.193 1406.35 530.306Z" fill="#615E56"/>
<path d="M950.747 998.404C951.967 1002.06 954.161 1005.7 954.239 1009.38C954.605 1026.69 954.87 1044.04 954.206 1061.34C953.803 1071.86 952.416 1082.6 946.025 1091.6C938.31 1102.45 927.636 1108.59 914.323 1109.83C911.018 1110.14 907.664 1109.96 904.332 1109.96C735.073 1109.96 565.813 1109.99 396.553 1109.85C389.354 1109.85 381.989 1108.9 374.992 1107.2C358.907 1103.29 345.854 1083.6 346.027 1066.09C346.363 1032.11 346.336 998.122 346.041 964.139C345.867 944.117 358.35 928.12 375.627 921.189C378.314 920.111 381.476 919.858 384.421 919.843C408.743 919.712 433.066 919.781 457.388 919.655C462.593 919.629 466.826 920.342 466.935 928.576C466.809 942.931 466.483 955.558 466.612 968.18C466.64 971.012 467.833 974.061 469.22 976.615C477.923 992.637 491.155 1000.22 509.758 1000.19C652.501 999.957 795.244 1000.08 937.987 999.998C942.241 999.995 946.494 998.959 950.747 998.404Z" fill="#FDC10A"/>
<path d="M649.802 522.438C653.597 524.426 654.296 527.828 654.282 531.727C654.21 551.054 655.273 570.457 653.901 589.688C652.595 607.984 644.957 623.64 626.575 631.346C623.28 632.727 619.557 633.48 615.979 633.711C606.68 634.312 597.354 634.733 588.038 634.746C525.722 634.83 463.407 634.814 401.091 634.75C395.444 634.744 389.779 634.359 384.153 633.831C367.251 632.242 357.015 622.337 349.869 607.519C346.634 600.81 346.102 594.264 346.104 587.289C346.116 553.965 346.413 520.637 345.992 487.319C345.791 471.436 358.309 450.821 375.201 446.554C381.709 444.91 387.941 443.345 394.593 443.345C415.587 443.346 436.581 443.295 457.574 443.409C465.334 443.451 465.333 443.634 467.099 453.157C466.967 468.141 466.759 481.399 466.712 494.659C466.706 496.235 467.363 497.917 468.07 499.376C475.822 515.368 487.685 524.209 506.398 524.006C550.258 523.532 594.127 523.905 637.992 523.814C641.929 523.806 645.865 522.918 649.802 522.438Z" fill="#FDC10A"/>
<path d="M1006.27 165.435C1001 170.02 996.621 174.608 991.555 178.244C983.262 184.194 969.648 177.863 968.92 167.627C968.722 164.841 970.787 161.313 972.831 159.04C994.528 134.906 1015.7 110.236 1038.5 87.1805C1057.61 67.864 1078.68 50.5014 1098.87 32.2564C1107.34 24.6028 1116.07 26.9967 1121.47 35.4753C1124.09 39.5715 1124.21 42.4237 1121.04 46.0524C1116.01 51.7947 1111.66 58.1359 1106.49 63.7361C1085.81 86.1406 1067.71 110.897 1044.6 131.075C1031.85 142.201 1019.42 153.686 1006.27 165.435Z" fill="#615E55"/>
</svg>
