<svg width="3264" height="2088" xmlns="http://www.w3.org/2000/svg">
 <g>
  <title>background</title>
  <rect x="-1" y="-1" width="8161.910595" height="5221.942807" id="canvas_background" fill="none"/>
 </g>

 <g>
  <title>Layer 1</title>
  <path fill="#13192900" d="m2010,2090c-670,0 -1339,0 -2008,0c0,-696 0,-1392 0,-2088c1088,0 2176,0 3264,0c0,696 0,1392 0,2088c-418.333252,0 -836.666748,0 -1256,0m-1880.544479,-1227.637207c0,0 -0.56807,0.663147 -0.56807,0.663147c0,0 0.363815,0.792114 -0.472214,2.030151c-10.384674,12.82251 -13.193107,27.484619 -13.162323,43.845337c0.331109,175.941956 0.205262,351.884827 0.211991,527.827454c0.000168,4.331299 -0.233566,8.69397 0.187164,12.988525c1.847069,18.853516 11.302094,32.842041 28.842636,39.841309c7.124787,2.843017 15.647309,2.98938 23.53505,2.996216c178.275024,0.154907 356.550262,0.123779 534.825409,0.099365c4.992736,-0.000733 10.042724,0.110962 14.967285,-0.557129c13.201172,-1.791382 23.354248,-8.644775 32.02771,-20.072754c7.185424,-5.919067 14.545593,-11.639893 21.522827,-17.794922c19.005798,-16.766479 36.936645,-34.560303 52.330688,-54.817383c6.321045,-8.317871 8.98877,-17.147705 8.957093,-27.738037c-0.289917,-96.931274 -0.170105,-193.863647 -0.172608,-290.795776c-0.000061,-2.997803 -0.036621,-5.995606 -0.044739,-8.993408c-0.041076,-15.106812 -6.952575,-26.774414 -18.286193,-36.130616c-1.09607,-0.904907 -2.933533,-0.911621 -5.553528,-2.355834c-1.975708,-0.656006 -3.951355,-1.31189 -5.729676,-3.290406c-1.363952,-0.721313 -2.684204,-1.961059 -4.098999,-2.0802c-9.592529,-0.80835 -19.199035,-1.805664 -28.812255,-1.940796c-20.653626,-0.290527 -41.314942,0.021851 -61.971375,-0.140747c-15.827881,-0.124756 -23.297119,-7.636475 -23.588562,-23.211853c-0.04364,-2.331543 -0.015442,-4.66449 -0.015503,-6.996826c-0.000732,-32.319214 0.004822,-64.638367 -0.002136,-96.957581c-0.005798,-26.654968 0.178955,-53.312072 -0.104859,-79.964172c-0.227783,-21.388977 -12.967224,-38.500122 -33.468872,-44.610352c-6.23468,-1.858215 -13.101867,-2.203491 -19.680236,-2.209594c-130.609497,-0.121704 -261.219513,0.055542 -391.828034,-0.318116c-13.157074,-0.037597 -24.167145,3.576172 -34.239471,11.261963c-5.552429,4.236878 -11.010025,8.643189 -16.155533,13.360169c-19.68811,18.048279 -37.257416,38.077026 -54.15181,58.710998c-1.205643,1.472596 -1.839584,3.413208 -2.713699,5.030213c0,0 0.098678,-0.046326 -1.034638,0.222839c-0.24974,0.688049 -0.499466,1.37616 -0.90419,1.902466c0,0 0.221985,0.030273 -0.64833,0.19635m2196.29277,17.604309c-0.477783,-5.594238 -3.528076,-8.443848 -10.391113,-9.507873c-9.660889,-6.677918 -20.27417,-8.987488 -32.068116,-8.972474c-160.255859,0.203553 -320.511962,0.199036 -480.7677,-0.010803c-10.130737,-0.013306 -19.043091,2.39679 -27.399048,7.6427c-4.227661,2.654053 -8.520263,5.290772 -12.378662,8.432495c-22.269409,18.133423 -42.377319,38.483033 -62.280273,60.863038c-12.826538,12.924987 -16.289307,28.515075 -16.239868,46.507873c0.433105,157.629578 0.25,315.260681 0.252197,472.891419c0.000122,3.999023 -0.130371,8.005859 0.069092,11.995605c0.708252,14.174194 6.807007,25.490723 18.182495,34.0177c8.743652,6.554077 18.721191,7.907105 29.307007,7.901856c162.296386,-0.080445 324.592651,-0.054566 486.889038,-0.062622c2.998291,-0.000122 6.031738,0.165771 8.989014,-0.213745c15.519775,-1.990967 27.31958,-9.557129 35.653808,-24.33191c10.215332,-10.509643 20.639893,-20.825561 30.592774,-31.578247c12.217041,-13.198608 24.358154,-26.510376 33.148681,-42.416992c3.31543,-5.999512 5.220215,-12.214844 3.985596,-20.891601c0.06665,-1.661988 0.191162,-3.324097 0.191406,-4.986084c0.009522,-156.790894 0.01416,-313.581788 -0.022461,-470.37262c-0.000732,-2.961426 -0.498779,-5.922791 -0.16748,-10.501465c0.956787,-9.01178 -1.625,-17.214355 -5.546387,-26.40625m-1151.750122,398.037048c0,0 0.099243,-0.040405 0.324829,-1.615356c-4.290527,-5.658325 -4.641968,-12.175415 -4.637695,-18.976563c0.077026,-120.98999 0.05542,-241.979919 0.050049,-362.969909c-0.000245,-3.999329 0.3927,-8.063111 -0.176148,-11.983948c-1.04126,-7.179077 -1.867676,-14.673401 -9.457886,-18.455872c0,0 0.228028,-0.258972 -0.514282,-1.564086c-5.528076,-4.545777 -12.149536,-4.853089 -18.846557,-4.854187c-32.944825,-0.005311 -65.903565,0.548583 -98.827881,-0.275818c-13.71753,-0.343445 -24.447205,4.268921 -34.548401,12.596313c-21.976868,18.117737 -39.473938,40.130432 -56.758545,64.309998c-5.791016,7.197509 -6.626526,15.609619 -6.62207,24.489135c0.084228,166.561524 0.061035,333.123047 0.063232,499.684571c0.000061,2.997925 -0.112366,6.005615 0.080994,8.992187c0.762085,11.768189 5.218078,21.804077 13.702758,30.174927c9.556031,9.428345 21.234864,11.300293 34.003235,11.290405c156.23468,-0.121948 312.469422,-0.074341 468.704163,-0.094482c3.658325,-0.000488 7.4198,0.215454 10.954956,-0.522949c9.183227,-1.917969 16.844849,-6.075806 20.513428,-16.55835c2.362182,-2.319824 4.726196,-4.637817 7.086425,-6.959595c16.356934,-16.092529 32.840455,-32.059204 49.008667,-48.339111c6.785523,-6.832398 9.911744,-15.025147 9.740601,-25.198486c-0.543091,-32.286866 -0.191406,-64.588745 -0.213623,-96.884766c-0.002808,-3.993286 -0.067627,-7.992676 -0.293091,-11.978516c-0.316894,-5.600708 -2.925903,-9.74292 -7.249145,-13.536499c-7.651978,-6.714355 -16.520386,-7.856323 -26.055298,-7.851806c-107.209595,0.050171 -214.419312,0.035156 -321.628906,0.02417c-9.561158,-0.000977 -19.214234,0.757934 -28.403809,-2.941407m1434.052124,223.695069c14.255371,0.661499 28.506103,1.729248 42.76709,1.895874c25.645019,0.299927 51.063965,-2.080567 76.12915,-7.818848c10.076172,-2.306641 18.340332,-7.072021 24.980225,-15.189209c15.139404,-18.507568 30.539062,-36.804443 45.996338,-55.048462c9.858886,-11.636719 20.009765,-23.025879 31.311035,-33.832275c8.895996,6.943603 17.966308,13.676391 26.652832,20.872925c20.519043,16.999878 40.537842,34.619384 61.381836,51.20581c12.975586,10.324707 27.723633,14.240357 45.078125,5.491944c4.290283,-0.331055 8.579346,-0.935791 12.870849,-0.949463c31.995118,-0.101441 63.91626,-1.027222 95.525635,-6.717408c12.823975,-2.308593 23.408692,-7.241088 32.109863,-17.931518c29.853028,-36.676758 60.158204,-73.005615 91.095948,-108.770752c15.365234,-17.762817 11.11206,-42.112915 -5.239502,-55.569336c-46.016846,-37.869263 -91.320069,-76.604614 -137.16211,-114.688843c-12.043457,-10.005371 -13.738525,-26.216064 -3.58789,-37.837768c15.329345,-17.551148 30.105713,-35.585938 45.080322,-53.446045c23.744873,-28.320801 47.599121,-56.552429 71.070557,-85.09845c4.729492,-5.751953 9.574463,-11.811584 10.007568,-20.095703c0.734131,-14.044861 -4.509033,-25.192932 -15.144531,-34.115601c-35.978516,-30.184814 -72.018067,-60.29834 -107.801514,-90.712951c-6.409424,-5.44751 -13.385742,-8.291993 -21.490723,-9.410035c-24.646728,-3.399963 -49.198486,-1.557006 -73.663818,1.558411c-16.826172,2.142639 -33.536133,5.197571 -51.91748,7.131531c-17.59961,-2.000366 -31.883545,3.661865 -43.126709,17.642395c-12.098389,15.044006 -24.642823,29.732971 -37.148438,44.444275c-10.979492,12.916565 -22.174805,25.650207 -34.447021,37.967224c-2.45459,-1.630066 -5.089112,-3.044983 -7.33667,-4.922852c-27.029541,-22.58728 -54.091553,-45.137451 -80.929444,-67.951049c-7.204101,-6.123719 -15.192627,-9.187989 -24.484375,-9.669129c-20.982666,-1.08667 -41.870605,-0.228149 -62.597168,3.199097c-20.637695,3.412536 -41.21997,7.163086 -63.246093,10.029297c-14.652344,-2.513184 -27.19043,2.122253 -36.549073,13.109375c-31.550293,37.040588 -62.663574,74.453735 -93.824951,111.823547c-2.505371,3.004578 -4.720703,6.547913 -6.015625,10.213684c-5.703369,16.143555 -2.139404,30.324341 10.628907,41.677612c12.197265,10.845581 24.827392,21.207154 37.326171,31.710938c34.437256,28.940063 68.976563,57.759033 103.32837,86.799927c14.848876,12.553222 15.878662,24.934204 3.586914,39.66748c-30.311768,36.333374 -60.734864,72.574219 -91.103028,108.860474c-8.981201,10.731445 -18.158203,21.30957 -26.841064,32.277954c-15.010498,18.961059 -8.925293,41.868286 5.722412,53.337646c20.192139,15.810425 39.388183,32.891846 59.037353,49.397461c17.352051,14.576294 34.348389,29.615601 52.256104,43.47583c11.066162,8.564942 23.856934,13.235352 39.713623,5.984986z" id="svg_1"/>
  <path fill="#5B5A5A" d="m748.584473,1472.444946c-7.407776,11.007447 -17.560852,17.86084 -30.762024,19.652222c-4.924561,0.668091 -9.974549,0.556396 -14.967285,0.557129c-178.275147,0.024414 -356.550385,0.055542 -534.825409,-0.099365c-7.887741,-0.006836 -16.410263,-0.153199 -23.53505,-2.996216c-17.540542,-6.999268 -26.995567,-20.987793 -28.842636,-39.841309c-0.42073,-4.294555 -0.186996,-8.657226 -0.187164,-12.988525c-0.006729,-175.942627 0.119118,-351.885498 -0.211991,-527.827454c-0.030784,-16.360718 2.777649,-31.022827 13.823395,-44.677551c0.983414,-1.168213 1.179566,-1.566467 1.249527,-2.027161c0,0 -0.221985,-0.030273 0.354584,-0.17157c0.871368,-0.770996 1.166153,-1.400634 1.460937,-2.030334c0,0 -0.098678,0.046326 0.618287,0.054077c12.51387,-7.960571 25.574249,-9.93573 39.654373,-9.90741c126.298843,0.25409 252.598434,0.147645 378.897812,0.150879c3.665405,0.000061 7.343567,-0.152099 10.994079,0.091858c24.736389,1.653199 41.996582,18.789673 43.832215,43.519959c0.295532,3.980896 0.266296,7.991028 0.2677,11.987671c0.016906,49.320068 -0.026673,98.640197 0.070739,147.960083c0.009766,4.955078 0.696778,9.926391 1.318665,14.858764c1.098816,8.714356 6.642212,13.550293 14.723816,15.565186c3.500854,0.873047 7.246704,1.03186 10.883301,1.047241c21.660461,0.091675 43.339538,0.590942 64.97644,-0.128052c16.709778,-0.555297 31.698792,2.734253 44.829285,14.453614c7.563965,10.532226 11.35614,21.277832 11.32251,33.946899c-0.271424,102.541504 -0.175537,205.083984 -0.126465,307.626221c0.004516,9.483764 -1.084229,18.563476 -6.662049,26.619262c-1.116333,1.612305 -2.253845,3.592041 0.842408,4.603882m-402.940094,-478.703979c-1.520081,-1.092652 -3.022309,-3.102356 -4.56305,-3.132324c-11.979034,-0.233277 -24.030456,-0.847596 -35.930786,0.166381c-11.189789,0.953431 -18.878662,9.803894 -19.115082,20.908448c-0.375579,17.64209 -0.394622,35.305542 0.029877,52.945556c0.253937,10.552979 7.22879,18.012696 17.60257,19.976807c3.560425,0.67395 7.27127,0.752563 10.914093,0.760376c27.307953,0.059204 54.616119,0.035156 81.924194,0.030762c6.327393,-0.000977 12.665161,0.197631 18.979614,-0.095337c8.085907,-0.374878 14.92862,-3.360108 19.031769,-10.835083c4.256958,-7.755249 4.924164,-35.706543 1.278137,-46.493164c0.020447,-3.980103 0.174073,-7.964722 0.037018,-11.939392c-0.453308,-13.14563 -7.188629,-20.792481 -20.16864,-20.974305c-23.199402,-0.324829 -46.410736,0.204224 -70.019714,-1.318725m238.252777,269.76831c-0.005005,-5.317138 0.334045,-10.662109 -0.090882,-15.945434c-0.748901,-9.310791 -7.218078,-16.020752 -16.449157,-17.313721c-3.269471,-0.458008 -6.635926,-0.292725 -9.95813,-0.293701c-51.204712,-0.015503 -102.409424,-0.036743 -153.614105,0.001221c-19.281342,0.014282 -38.562561,0.176635 -58.254395,-1.31958c-2.616211,-0.888672 -5.211883,-2.464966 -7.852264,-2.543824c-9.980103,-0.297973 -19.97699,-0.242065 -29.963349,-0.070312c-12.5242,0.21521 -21.471222,8.724365 -21.697662,21.21582c-0.313751,17.308838 -0.152405,34.628296 -0.02945,51.942017c0.050812,7.156128 3.609192,12.66455 9.162873,16.925293c4.75885,3.651123 10.312195,4.053466 16.094909,4.049072c82.910462,-0.063843 165.820984,-0.042847 248.731507,-0.045654c1.997558,0 4.011902,0.119995 5.989807,-0.087891c9.758362,-1.025024 17.231934,-6.774658 18.352661,-16.638794c1.340515,-11.79834 0.854004,-23.807739 1.033936,-35.727539c0.012207,-0.80835 -1.022889,-1.632568 -1.456299,-4.146973z" id="svg_2"/>
  <path fill="#5B5B5A" d="m2262.582031,1487.849487c-7.350097,14.045655 -19.149902,21.611817 -34.669677,23.602784c-2.957276,0.379516 -5.990723,0.213623 -8.989014,0.213745c-162.296387,0.008056 -324.592652,-0.017823 -486.889038,0.062622c-10.585816,0.005249 -20.563355,-1.347779 -29.307007,-7.901856c-11.375488,-8.526977 -17.474243,-19.843506 -18.182495,-34.0177c-0.199463,-3.989746 -0.06897,-7.996582 -0.069092,-11.995605c-0.002197,-157.630738 0.180908,-315.261841 -0.252197,-472.891419c-0.049439,-17.992798 3.41333,-33.582886 17.6156,-46.68811c11.020386,-4.058106 20.930298,-6.073487 31.435425,-6.066529c159.810059,0.106141 319.620239,0.144959 479.430298,-0.032898c16.180664,-0.018005 30.155762,3.997315 41.205811,17.120362c2.529541,5.363708 4.898437,10.063782 6.997802,15.366943c0.085205,2.238587 0.440186,3.874146 0.715332,6.436402c-0.050781,4.926452 0.003907,8.926269 0.003907,12.926025c0.00415,158.332275 0.001464,316.664673 0.014648,474.996948c0.000244,3.660767 0.17334,7.321655 -0.184814,11.577515c-1.793946,6.609863 -3.136963,12.624634 -4.64795,19.391357c2.253907,-0.82019 4.013184,-1.460327 5.772461,-2.100586m-424.27124,-146.476196c2.227051,3.231934 4.45398,6.463867 7.498779,10.965576c4.345093,1.297608 8.686646,3.713257 13.035645,3.726441c76.218139,0.231079 152.437134,0.217651 228.656006,0.124511c13.858886,-0.016845 20.82666,-7.071777 20.961914,-20.879638c0.159424,-16.306885 0.012695,-32.6167 0.8479,-50.406739c0.237061,-2.634155 0.679444,-5.26831 0.681153,-7.902588c0.037109,-55.931884 0.025878,-111.863891 0.018066,-167.795776c-0.000244,-1.996948 0.055908,-4.004394 -0.119873,-5.988891c-0.867432,-9.802125 -6.806641,-15.843873 -16.570557,-16.770386c-2.642822,-0.250733 -5.32251,-0.1427 -7.985351,-0.143067c-54.60022,-0.007568 -109.20044,-0.028686 -163.80066,0.037354c-3.958129,0.004761 -7.915405,0.654419 -13.196655,-0.016358c-2.567505,-0.562866 -5.129028,-1.578979 -7.703369,-1.612304c-12.98999,-0.168457 -25.984009,-0.138184 -38.975098,-0.019287c-1.881469,0.017212 -3.755004,0.890258 -7.169555,1.294677c-11.136353,2.394043 -16.105103,7.969117 -16.761841,18.87024c-0.099732,1.655517 -0.036133,3.321289 -0.036255,4.982299c-0.001587,73.418335 -0.010376,146.836548 0.025635,220.254883c0.001587,3.29895 0.413086,6.597779 0.594116,11.279053m416.842529,151.566895c0,0 -0.206299,0.134033 0,0z" id="svg_3"/>
  <path fill="#5B5B5A" d="m2960.900146,1469.52417c-15.907714,8.501221 -30.655761,4.585571 -43.631347,-5.739136c-20.843994,-16.586426 -40.862793,-34.205932 -61.381836,-51.20581c-8.686524,-7.196534 -17.756836,-13.929322 -27.078125,-21.749146c2.060791,-3.609375 3.270019,-6.258789 -0.279785,-9.208374c-17.399903,-14.457031 -34.449707,-29.357788 -52.256836,-43.292358c-7.842041,-6.136597 -17.558594,-8.811402 -27.05127,-2.854737c-4.387451,2.753296 -8.386718,6.48816 -11.73999,10.470215c-33.008545,39.198731 -65.713379,78.653809 -98.822266,117.766846c-8.098144,9.567017 -14.660644,20.822266 -26.295898,26.965088c-4.505615,2.378784 -9.186035,4.426513 -14.82251,7.119995c3.588623,1.586182 6.165772,2.725342 8.74292,3.864502c-14.089599,7.28833 -26.880371,2.61792 -37.946533,-5.947022c-17.907715,-13.860229 -34.904053,-28.899536 -52.256104,-43.47583c-19.64917,-16.505615 -38.845214,-33.587036 -59.037353,-49.397461c-14.647705,-11.46936 -20.73291,-34.376587 -5.722412,-53.337646c8.682861,-10.968384 17.859863,-21.546509 26.841064,-32.277954c30.368164,-36.286255 60.79126,-72.5271 91.103028,-108.860474c12.291748,-14.733276 11.261962,-27.114258 -3.586914,-39.66748c-34.351807,-29.040894 -68.891114,-57.859864 -103.32837,-86.799927c-12.498779,-10.503784 -25.128906,-20.865357 -37.326171,-31.710938c-12.768311,-11.353271 -16.332276,-25.534057 -10.628907,-41.677612c1.294922,-3.665771 3.510254,-7.209106 6.015625,-10.213684c31.161377,-37.369812 62.274658,-74.782959 93.824951,-111.823547c9.358643,-10.987122 21.896729,-15.622559 36.809082,-12.287476c-1.561523,1.472046 -3.383056,2.122192 -6.162841,3.114319c2.451416,0.884949 3.919677,1.753967 5.462402,1.916321c8.968506,0.943298 16.184326,5.202759 22.96875,10.921936c45.06543,37.989441 90.411133,75.648071 135.284668,113.861938c11.448242,9.749268 27.057129,12.355042 40.489014,-2.766296c13.923339,-15.675171 27.017578,-32.086121 40.505615,-48.149048c2.62915,-3.131226 3.645508,-6.31427 0.958496,-9.908936c11.099853,-12.814514 22.295166,-25.548156 33.274658,-38.464721c12.505615,-14.711304 25.050049,-29.400269 37.148438,-44.444275c11.243164,-13.98053 25.527099,-19.642761 43.405761,-17.007263c-2.203857,1.723388 -4.686767,2.811645 -6.491699,3.602661c7.106934,4.601806 14.090332,8.861877 20.774414,13.548828c4.075684,2.857727 7.686768,6.376953 11.512696,9.591675c31.115234,26.143677 62.267578,52.243469 93.29541,78.490295c3.229492,2.731934 6.369629,5.963379 8.446289,9.594971c8.52124,14.89978 5.477539,29.045715 -4.660889,41.733703c-13.095703,16.3891 -26.824219,32.27356 -40.307373,48.352662c-25.041016,29.861328 -49.858643,59.915039 -75.256348,89.470337c-12.731445,14.815795 -7.937011,31.019897 3.64795,40.220703c14.08081,11.183227 27.707763,22.939941 41.473144,34.517456c32.630615,27.443847 65.333008,54.803955 97.776611,82.467407c10.713868,9.135254 14.298096,21.041748 11.309815,35.011841c-1.627441,7.608398 -6.631592,12.900757 -11.293945,18.468994c-25.664063,30.64917 -51.4646,61.183838 -77.07544,91.877075c-9.323486,11.173584 -17.517822,23.567749 -35.449463,26.589478c7.906739,1.146118 13.363282,1.937011 18.819824,2.727905z" id="svg_4"/>
  <path fill="#5B5B5A" d="m1491.329468,1492.344604c-2.991699,9.808106 -10.653321,13.965943 -19.836548,15.883912c-3.535156,0.738403 -7.296631,0.522461 -10.954956,0.522949c-156.234741,0.020141 -312.469483,-0.027466 -468.704163,0.094482c-12.768371,0.009888 -24.447204,-1.86206 -34.003235,-11.290405c-8.48468,-8.37085 -12.940673,-18.406738 -13.702758,-30.174927c-0.19336,-2.986572 -0.080933,-5.994262 -0.080994,-8.992187c-0.002197,-166.561524 0.020996,-333.123047 -0.063232,-499.684571c-0.004456,-8.879516 0.831054,-17.291626 7.858276,-24.748413c8.960022,-3.08905 16.239319,-6.740539 25.080505,-6.203613c12.619873,0.766357 25.320984,0.193848 37.987427,0.194946c19.333008,0.001648 38.666016,-0.033081 57.998901,0.021424c11.619263,0.032715 23.13855,7.037903 25.197022,19.798462c0.789062,4.890197 1.526611,9.860778 1.530029,14.795227c0.084229,119.664306 0.065186,239.328613 0.068604,358.993042c0.000122,4.33313 -0.07605,8.670654 0.085693,12.998535c0.346802,9.279541 4.813599,14.930298 13.989502,16.792724c4.517456,0.916993 9.27063,0.915284 13.917236,0.917359c108.664551,0.046387 217.329224,0.020996 325.993775,0.085815c4.96582,0.00293 10.028076,0.241211 14.875854,1.214844c9.353516,1.878174 15.295899,7.88208 17.269043,17.170776c1.096924,5.164307 1.654175,10.565674 1.551758,15.84253c-0.693603,35.714355 2.072144,71.484985 -2.025391,107.824585c2.331788,-0.803955 4.149781,-1.430664 5.967652,-2.057496m-8.274414,4.348389c0,0 0.115722,0.221436 0,0z" id="svg_5"/>
  <path fill="#FEC10A" d="m2961.623535,1469.400635c-6.179931,-0.667359 -11.636474,-1.458252 -19.543213,-2.60437c17.931641,-3.021729 26.125977,-15.415894 35.449463,-26.589478c25.61084,-30.693237 51.411377,-61.227905 77.07544,-91.877075c4.662353,-5.568237 9.666504,-10.860596 11.293945,-18.468994c2.988281,-13.970093 -0.595947,-25.876587 -11.309815,-35.011841c-32.443603,-27.663452 -65.145996,-55.02356 -97.776611,-82.467407c-13.765381,-11.577515 -27.392334,-23.334229 -41.473144,-34.517456c-11.584961,-9.200806 -16.379395,-25.404908 -3.64795,-40.220703c25.397705,-29.555298 50.215332,-59.609009 75.256348,-89.470337c13.483154,-16.079102 27.21167,-31.963562 40.307373,-48.352662c10.138428,-12.687988 13.182129,-26.833923 4.660889,-41.733703c-2.07666,-3.631592 -5.216797,-6.863037 -8.446289,-9.594971c-31.027832,-26.246826 -62.180176,-52.346618 -93.29541,-78.490295c-3.825928,-3.214722 -7.437012,-6.733948 -11.512696,-9.591675c-6.684082,-4.686951 -13.66748,-8.947022 -20.774414,-13.548828c1.804932,-0.791016 4.287842,-1.879273 7.301514,-3.246033c17.29248,-2.92572 34.002441,-5.980652 50.828613,-8.123291c24.465332,-3.115417 49.01709,-4.958374 73.663818,-1.558411c8.104981,1.118042 15.081299,3.962525 21.490723,9.410035c35.783447,30.414611 71.822998,60.528137 107.801514,90.712951c10.635498,8.922669 15.878662,20.07074 15.144531,34.115601c-0.433105,8.284119 -5.278076,14.34375 -10.007568,20.095703c-23.471436,28.546021 -47.325684,56.777649 -71.070557,85.09845c-14.974609,17.860107 -29.750977,35.894897 -45.080322,53.446045c-10.150635,11.621704 -8.455567,27.832397 3.58789,37.837768c45.842041,38.084229 91.145264,76.81958 137.16211,114.688843c16.351562,13.456421 20.604736,37.806519 5.239502,55.569336c-30.937744,35.765137 -61.24292,72.093994 -91.095948,108.770752c-8.701171,10.69043 -19.285888,15.622925 -32.109863,17.931518c-31.609375,5.690186 -63.530517,6.615967 -95.525635,6.717408c-4.291503,0.013672 -8.580566,0.618408 -13.594238,1.07312m173.328613,-487.528626c8.524414,-1.403137 17.053956,-2.777893 25.57129,-4.222229c3.857421,-0.654113 6.956298,-1.976562 6.997314,-6.832824c0.044189,-5.148743 -1.978516,-8.490418 -6.817627,-9.523499c-2.243652,-0.478943 -4.641357,-0.491211 -6.950928,-0.36908c-19.248291,1.018189 -38.533935,1.647217 -57.723144,3.353699c-13.210694,1.174683 -26.31958,3.68103 -39.404297,5.989075c-5.467774,0.964477 -8.026367,4.553711 -7.544678,8.804443c0.489746,4.321228 3.90625,7.694031 8.629151,8.310181c1.636474,0.213379 3.322509,0.056457 4.985839,0.052429c23.638184,-0.058044 47.196534,-1.164551 72.25708,-5.562195m2.583497,318.46991c-16.143311,2.109375 -32.293702,4.164307 -48.423829,6.369995c-3.609375,0.49353 -7.252685,1.204956 -10.687744,2.37915c-3.738525,1.278077 -6.207275,4.18274 -5.859863,8.31604c0.374023,4.44751 3.026611,7.275879 7.611572,7.907715c1.308838,0.180298 2.658203,0.214478 3.97876,0.138672c20.554199,-1.180298 41.14917,-1.915649 61.643066,-3.768188c12.539551,-1.133545 24.950928,-3.842163 37.365235,-6.139405c6.498047,-1.202392 8.730469,-5.40271 6.930664,-11.619873c-1.700195,-5.873413 -6.895264,-4.751464 -10.781494,-4.752441c-13.293946,-0.003296 -26.587891,0.632935 -41.776367,1.168335z" id="svg_6"/>
  <path fill="#FEC10A" d="m1491.667969,1492.007324c-2.156372,0.964112 -3.974365,1.590821 -6.306153,2.394776c4.097535,-36.3396 1.331788,-72.11023 2.025391,-107.824585c0.102417,-5.276856 -0.454834,-10.678223 -1.551758,-15.84253c-1.973144,-9.288696 -7.915527,-15.292602 -17.269043,-17.170776c-4.847778,-0.973633 -9.910034,-1.211914 -14.875854,-1.214844c-108.664551,-0.064819 -217.329224,-0.039428 -325.993775,-0.085815c-4.646606,-0.002075 -9.39978,-0.000366 -13.917236,-0.917359c-9.175903,-1.862426 -13.6427,-7.513183 -13.989502,-16.792724c-0.161743,-4.327881 -0.085571,-8.665405 -0.085693,-12.998535c-0.003418,-119.664429 0.015625,-239.328736 -0.068604,-358.993042c-0.003418,-4.934449 -0.740967,-9.90503 -1.530029,-14.795227c-2.058472,-12.760559 -13.577759,-19.765747 -25.197022,-19.798462c-19.332885,-0.054505 -38.665893,-0.019776 -57.998901,-0.021424c-12.666443,-0.001098 -25.367554,0.571411 -37.987427,-0.194946c-8.841186,-0.536926 -16.120483,3.114563 -24.569946,5.675964c15.537842,-23.392639 33.034912,-45.405334 55.01178,-63.523071c10.101196,-8.327392 20.830871,-12.939758 34.548401,-12.596313c32.924316,0.824401 65.883056,0.270507 98.827881,0.275818c6.697021,0.001098 13.318481,0.30841 18.533813,5.83728c-4.076416,2.929809 -8.34082,4.275085 -11.52063,6.922912c-17.648804,14.696106 -33.81543,30.929993 -48.629272,48.489685c-1.702393,2.017945 -3.691162,4.117615 -4.427735,6.522339c-0.56311,1.838074 -0.060913,5.134034 1.235962,6.130799c1.711182,1.315063 4.699951,1.447021 7.067749,1.245605c1.383057,-0.117676 2.649903,-1.848999 3.928833,-2.903015c18.015503,-14.848206 33.957276,-31.732727 49.072266,-49.476685c4.316772,-5.067566 7.411743,-9.927307 4.249634,-16.658386c7.440429,4.09021 8.266845,11.584534 9.308105,18.763611c0.568848,3.920837 0.175903,7.984619 0.176148,11.983948c0.005371,120.98999 0.026977,241.979919 -0.050049,362.969909c-0.004273,6.801148 0.347168,13.318238 3.867187,19.977051c-4.474853,-0.700439 -7.571777,-0.192749 -10.627563,2.793823c-14.217407,13.895386 -28.676392,27.544556 -42.832642,41.501465c-4.468994,4.406128 -8.333252,9.438111 -12.343872,14.291504c-2.20166,2.664429 -2.185181,5.511841 0.384033,8.003052c2.458496,2.384033 5.275879,2.771362 8.060425,0.636719c3.154297,-2.417847 6.20105,-4.981324 9.225708,-7.562134c15.94165,-13.601318 29.916382,-29.072998 43.489624,-44.991089c3.737427,-4.382934 5.800049,-8.568603 5.12146,-14.160644c9.158081,3.801513 18.811157,3.042602 28.372315,3.043579c107.209594,0.010986 214.419311,0.026001 321.628906,-0.02417c9.534912,-0.004517 18.40332,1.137451 26.055298,7.851806c4.323242,3.793579 6.932251,7.935791 7.249145,13.536499c0.225464,3.98584 0.290283,7.98523 0.293091,11.978516c0.022217,32.296021 -0.329468,64.5979 0.213623,96.884766c0.171143,10.173339 -2.955078,18.366088 -9.740601,25.198486c-16.168212,16.279907 -32.651733,32.246582 -49.008667,48.339111c-2.360229,2.321778 -4.724243,4.639771 -7.424804,7.296753m26.336914,-178.002441c0,0 -0.013306,-0.057862 -1.12732,0.077881c-0.308715,0.635742 -0.617553,1.271484 -0.87268,1.922119c0,0 -0.017334,-0.053589 -1.139893,0.060058c-0.302612,0.640381 -0.605102,1.28064 -0.860107,1.939942c0,0 -0.019287,-0.047363 -1.142212,0.066162c-0.30249,0.642822 -0.604981,1.285522 -0.862671,1.928955c0,0 -0.000366,-0.044922 -1.114136,0.098267c-0.309936,0.636962 -0.619873,1.273925 -0.89563,1.892089c0,0 0.017945,-0.034179 -1.098877,0.1073c-0.310913,0.638428 -0.621826,1.276856 -0.906005,1.887696c0,0 0.027221,-0.026856 -1.087037,0.118652c-0.312744,0.639038 -0.625366,1.278198 -0.917846,1.876343c0,0 0.040649,-0.020386 -1.071045,0.14331c-0.310791,0.638062 -0.621582,1.276123 -0.927002,1.858155c0,0 0.05542,-0.008179 -1.191895,0.244384c-0.595947,0.602783 -1.192016,1.205567 -2.108886,2.141114c0,0 -0.632325,0.674804 -1.573365,1.504638c-0.356933,0.730347 -0.713745,1.460694 -1.102417,2.121216c0,0 0.063721,0.044922 -0.985595,0.268555c-0.319947,0.605346 -0.639893,1.210815 -1.015381,1.733276c0,0 0.084595,0.05481 -1.178345,0.45459c-0.961304,1.83728 -1.922607,3.674561 -2.826538,5.550415c0,0 -0.049072,-0.048218 -1.185059,0.023682c-0.281005,0.654174 -0.562133,1.308227 -0.817993,1.976318c0,0 -0.010498,-0.022217 -1.135132,0.08313c-0.286499,0.648437 -0.57312,1.296875 -0.863159,1.911133c0,0 0.035034,0.005981 -1.089844,0.117309c-0.291503,0.647827 -0.583007,1.295532 -0.908813,1.888428c0,0 0.057373,0.029175 -1.014038,0.209473c-0.306152,0.622192 -0.612183,1.244506 -0.986572,1.791992c0,0 0.090942,0.042602 -1.078858,0.601196c0.162476,2.162476 0.324829,4.324829 1.469483,7.63208c3.197876,2.577759 6.066894,1.589356 8.909912,-0.718384c20.091675,-16.309936 37.790405,-34.984741 54.038086,-55.047729c4.390136,-5.421265 3.744995,-6.747559 -4.026367,-11.499878c-1.102417,1.030396 -2.204957,2.060669 -3.319825,3.022705c0,0 0.067383,0.016968 -1.043213,0.1604c-0.322021,0.629639 -0.644165,1.2594 -0.962646,1.833497c0,0 0.055664,-0.000611 -1.062622,0.120727c-0.324463,0.627442 -0.648926,1.254883 -0.918457,1.899292c0,0 -0.006592,-0.056885 -1.369995,-0.109497c-2.867554,2.731934 -5.735108,5.463989 -8.635376,8.104126c0,0 0.086426,0.044556 -0.97107,0.261841c-0.340454,0.601929 -0.68103,1.203857 -1.035278,1.729248c0,0 0.074951,0.020386 -1.008667,0.213745c-0.335571,0.614136 -0.671265,1.228149 -1.002197,1.776245c0,0 0.066284,-0.000854 -1.025025,0.1875c-0.334594,0.616089 -0.669189,1.232056 -0.971801,1.816773c0,0 0.033081,-0.030884 -1.078614,0.120849c-0.319946,0.62854 -0.639892,1.256958 -0.901977,1.898682z" id="svg_7"/>
  <path fill="#FEC009" d="m742.902039,1099.046143c-12.824463,-11.116822 -27.813477,-14.406372 -44.523255,-13.851075c-21.636902,0.718994 -43.315979,0.219727 -64.97644,0.128052c-3.636597,-0.015381 -7.382447,-0.174194 -10.883301,-1.047241c-8.081604,-2.014893 -13.625,-6.85083 -14.723816,-15.565186c-0.621887,-4.932373 -1.308899,-9.903686 -1.318665,-14.858764c-0.097412,-49.319886 -0.053833,-98.640015 -0.070739,-147.960083c-0.001404,-3.996643 0.027832,-8.006775 -0.2677,-11.987671c-1.835633,-24.730286 -19.095826,-41.86676 -43.832215,-43.519959c-3.650512,-0.243957 -7.328674,-0.091797 -10.994079,-0.091858c-126.299378,-0.003234 -252.598969,0.103211 -378.897812,-0.150879c-14.080124,-0.02832 -27.140503,1.946839 -39.667191,9.960389c0.169968,-1.677735 0.803909,-3.618347 2.009552,-5.090943c16.894394,-20.633972 34.4637,-40.662719 54.15181,-58.710998c5.145508,-4.71698 10.603104,-9.123291 16.155533,-13.360169c10.072326,-7.685791 21.082397,-11.29956 34.239471,-11.261963c130.608521,0.373658 261.218537,0.196412 391.828034,0.318116c6.578369,0.006103 13.445556,0.351379 19.680236,2.209594c20.501648,6.11023 33.241089,23.221375 33.468872,44.610352c0.283814,26.6521 0.099061,53.309204 0.104859,79.964172c0.006958,32.319214 0.001404,64.638367 0.002136,96.957581c0.000061,2.332336 -0.028137,4.665283 0.015503,6.996826c0.291443,15.575378 7.760681,23.087097 23.588562,23.211853c20.656433,0.162598 41.317749,-0.14978 61.971375,0.140747c9.61322,0.135132 19.219726,1.132446 28.812255,1.940796c1.414795,0.119141 2.735047,1.358887 3.443238,2.992188c-21.338867,16.168945 -39.138001,34.377685 -55.392456,54.193237c-3.059143,3.729248 -3.830689,7.579346 -2.510865,12.452881c-0.78894,0.762451 -1.100952,1.071289 -1.412902,1.380005m-135.82544,-262.997254c-4.918884,5.772339 -9.837768,11.544739 -14.548096,17.072327c5.950867,9.580749 7.96399,10.23822 14.720398,4.167541c11.143128,-10.012207 22.445801,-19.914673 32.831116,-30.683288c10.55072,-10.940125 20.072998,-22.872132 29.833862,-34.125611c-6.785095,-9.121521 -7.292602,-9.309326 -14.54425,-3.230163c-16.854065,14.128967 -33.258484,28.740906 -48.29303,46.799194z" id="svg_8"/>
  <path fill="#FEC10B" d="m2253.750244,948.591309c-10.889648,-12.459473 -24.864746,-16.474793 -41.04541,-16.456788c-159.810059,0.177857 -319.620239,0.139039 -479.430298,0.032898c-10.505127,-0.006958 -20.415039,2.008423 -30.850708,5.74347c17.942505,-21.876709 38.050415,-42.226319 60.319824,-60.359742c3.858399,-3.141723 8.151001,-5.778442 12.378662,-8.432495c8.355957,-5.24591 17.268311,-7.656006 27.399048,-7.6427c160.255738,0.209839 320.511841,0.214356 480.7677,0.010803c11.793946,-0.015014 22.407227,2.294556 32.541016,10.089783c-2.257812,2.798096 -5.23999,4.177002 -7.679932,6.207581c-19.321777,16.08081 -37.297363,33.524048 -53.286865,52.975952c-3.425781,4.167541 -4.043701,8.133179 -0.702636,13.365906c-0.190186,2.083068 -0.300293,3.274231 -0.410401,4.465332z" id="svg_9"/>
  <path fill="#FFC107" d="m2253.910645,949.254883c-0.050293,-1.854675 0.059814,-3.045838 0.954834,-4.988404c2.885009,-1.435363 5.41748,-1.590759 7.011474,-2.89392c7.173096,-5.864258 14.563721,-11.586365 20.979004,-18.22638c12.410645,-12.844726 24.216797,-26.272827 37.060059,-39.303039c5.659179,4.066162 8.037841,9.086425 8.158691,15.391357c0.05835,3.046143 -1.598633,6.862732 2.622803,8.756165c0.265869,2.961364 0.763916,5.922729 0.764648,8.884155c0.036621,156.790832 0.031983,313.581726 0.022461,470.37262c-0.000244,1.661987 -0.124756,3.324096 -1.107178,6.177856c-2.158935,9.665527 -4.429199,17.781006 -9.736328,24.701294c-14.734863,19.213379 -30.279541,37.721802 -48.075927,54.215576c-1.781983,1.651611 -4.106202,2.71814 -6.225342,4.086304c-1.888184,-2.754517 -3.159912,-4.609741 -4.431397,-6.464844c-0.092773,-3.660767 -0.265869,-7.321655 -0.266113,-10.982422c-0.013184,-158.332275 -0.010498,-316.664673 -0.014648,-474.996948c0,-3.999756 -0.054688,-7.999573 0.517822,-13.253662c2.422119,-3.747376 2.133545,-5.633972 -0.967529,-6.711792c-2.368897,-4.700134 -4.737793,-9.400208 -7.267334,-14.763916z" id="svg_10"/>
  <path fill="#FEC009" d="m749.217285,1472.234619c-3.729065,-0.801514 -2.591553,-2.78125 -1.47522,-4.393555c5.57782,-8.055786 6.666565,-17.135498 6.662049,-26.619262c-0.049072,-102.542237 -0.144959,-205.084717 0.126465,-307.626221c0.03363,-12.669067 -3.758545,-23.414673 -11.32251,-33.946899c0.00592,-0.911255 0.317932,-1.220093 1.724487,-1.72937c4.629944,2.434204 7.46698,1.505004 10.737,-1.220337c18.839416,-15.701538 35.902893,-33.090699 51.137329,-52.312989c2.436401,-3.073974 3.829773,-6.089111 2.923523,-9.967041c1.493286,0.423706 3.330749,0.43042 4.426819,1.335327c11.333618,9.356202 18.245117,21.023804 18.286193,36.130616c0.008118,2.997802 0.044678,5.995605 0.044739,8.993408c0.002503,96.932129 -0.117309,193.864502 0.172608,290.795776c0.031677,10.590332 -2.636048,19.420166 -8.957093,27.738037c-15.394043,20.25708 -33.32489,38.050904 -52.330688,54.817383c-6.977234,6.155029 -14.337403,11.875855 -22.155701,18.005127z" id="svg_11"/>
  <path fill="#FEC10B" d="m2607.166748,1501.680176c-3.460693,-1.158081 -6.037842,-2.297241 -9.626465,-3.883423c5.636475,-2.693482 10.316895,-4.741211 14.82251,-7.119995c11.635254,-6.142822 18.197754,-17.398071 26.295898,-26.965088c33.108887,-39.113037 65.813721,-78.568115 98.822266,-117.766846c3.353272,-3.982055 7.352539,-7.716919 11.73999,-10.470215c9.492676,-5.956665 19.209229,-3.28186 27.05127,2.854737c17.807129,13.93457 34.856933,28.835327 52.256836,43.292358c3.549804,2.949585 2.340576,5.598999 -0.36084,8.86145c-10.235352,12.029541 -20.386231,23.418701 -30.245117,35.05542c-15.457276,18.244019 -30.856934,36.540894 -45.996338,55.048462c-6.639893,8.117188 -14.904053,12.882568 -24.980225,15.189209c-25.065185,5.738281 -50.484131,8.118775 -76.12915,7.818848c-14.260987,-0.166626 -28.511719,-1.234375 -43.650635,-1.914917z" id="svg_12"/>
  <path fill="#FEC10A" d="m2789.964111,942.925659c3.273194,3.843445 2.256836,7.026489 -0.372314,10.157715c-13.488037,16.062927 -26.582276,32.473877 -40.505615,48.149048c-13.431885,15.121338 -29.040772,12.515564 -40.489014,2.766296c-44.873535,-38.213867 -90.219238,-75.872497 -135.284668,-113.861938c-6.784424,-5.719177 -14.000244,-9.978638 -22.96875,-10.921936c-1.542725,-0.162354 -3.010986,-1.031372 -5.462402,-1.916321c2.779785,-0.992127 4.601318,-1.642273 6.872558,-2.746277c21.056397,-4.056152 41.638672,-7.806702 62.276367,-11.219238c20.726563,-3.427246 41.614502,-4.285767 62.597168,-3.199097c9.291748,0.48114 17.280274,3.54541 24.484375,9.669129c26.837891,22.813598 53.899903,45.363769 80.929444,67.951049c2.247558,1.877869 4.88208,3.292786 7.922851,5.17157z" id="svg_13"/>
  <path fill="#646054" d="m2319.129639,883.687134c-12.056885,13.186218 -23.863037,26.614319 -36.273682,39.459045c-6.415283,6.640015 -13.805908,12.362122 -20.979004,18.22638c-1.593994,1.303161 -4.126465,1.458557 -6.931641,2.001953c-4.125732,-4.481262 -3.507812,-8.4469 -0.082031,-12.614441c15.989502,-19.451904 33.965088,-36.895142 53.286865,-52.975952c2.439942,-2.030579 5.42212,-3.409485 8.307129,-5.735169c5.76294,-0.525696 8.813233,2.323914 8.60083,8.302551c-4.37207,-2.068237 -5.502929,0.007569 -5.928466,3.335633z" id="svg_14"/>
  <path fill="#646054" d="m809.167053,1033.908691c1.469605,4.388184 0.076233,7.403321 -2.360168,10.477295c-15.234436,19.22229 -32.297913,36.611451 -51.137329,52.312989c-3.27002,2.725341 -6.107056,3.654541 -10.26001,0.766601c-2.414429,-4.672973 -1.642883,-8.523071 1.41626,-12.252319c16.254455,-19.815552 34.053589,-38.024292 55.293701,-53.531861c2.532837,0.405152 4.508484,1.061036 7.047546,2.227295z" id="svg_15"/>
  <path fill="#FEC10B" d="m2261.45752,1470.558716c1.722412,1.26001 2.99414,3.115234 4.882324,5.869751c2.11914,-1.368164 4.443359,-2.434693 6.225342,-4.086304c17.796386,-16.493774 33.341064,-35.002197 48.075927,-54.215576c5.307129,-6.920288 7.577393,-15.035767 9.439942,-23.810669c2.446777,6.59436 0.541992,12.809692 -2.773438,18.809204c-8.790527,15.906616 -20.93164,29.218384 -33.148681,42.416992c-9.952881,10.752686 -20.377442,21.068604 -31.084717,31.942749c-2.251465,1.004883 -4.010742,1.64502 -6.264649,2.46521c1.510987,-6.766723 2.854004,-12.781494 4.64795,-19.391357z" id="svg_16"/>
  <path fill="#FEC10B" d="m2319.916016,883.84314c-0.36084,-3.48407 0.770019,-5.559876 5.049316,-2.822632c4.704346,8.138489 7.286133,16.341064 6.030762,26.161499c-4.52002,-1.084778 -2.863037,-4.901367 -2.921387,-7.94751c-0.12085,-6.304932 -2.499512,-11.325195 -8.158691,-15.391357z" id="svg_17"/>
  <path fill="#FEC009" d="m131.574692,860.129395c0.271881,0.495117 -0.022904,1.124755 -0.816757,1.976623c-0.24936,-0.465881 0.000366,-1.153992 0.816757,-1.976623z" id="svg_18"/>
  <path fill="#FEC009" d="m129.890686,862.279785c0.365189,0.377625 0.169037,0.775879 -0.396362,1.325073c-0.243058,0.213196 -0.606873,-0.578918 -0.606873,-0.578918c0,0 0.56807,-0.663147 1.003235,-0.746155z" id="svg_19"/>
  <path fill="#FEC109" d="m583.782532,1265.206909c0.548034,0.816773 1.58313,1.640991 1.570923,2.449341c-0.179932,11.9198 0.306579,23.929199 -1.033936,35.727539c-1.120727,9.864136 -8.594299,15.61377 -18.352661,16.638794c-1.977905,0.207886 -3.992249,0.087891 -5.989807,0.087891c-82.910523,0.002807 -165.821045,-0.018189 -248.731507,0.045654c-5.782714,0.004394 -11.336059,-0.397949 -16.094909,-4.049072c-5.553681,-4.260743 -9.112061,-9.769165 -9.162873,-16.925293c-0.122955,-17.313721 -0.284301,-34.633179 0.02945,-51.942017c0.22644,-12.491455 9.173462,-21.00061 21.697662,-21.21582c9.986359,-0.171753 19.983246,-0.227661 29.963349,0.070312c2.640381,0.078858 5.236053,1.655152 7.858276,4.09375c-0.208466,6.843262 -0.983917,12.186524 -0.519165,17.419678c0.931122,10.484619 8.527283,17.423096 19.143951,18.237671c2.317841,0.177612 4.657776,0.085449 6.987549,0.085693c67.236267,0.003784 134.472504,0.014771 201.708771,-0.027221c3.641785,-0.00232 7.283264,-0.454224 10.924927,-0.6969z" id="svg_20"/>
  <path fill="#FCC00C" d="m435.681824,1029.760742c3.759918,8.999268 3.092712,36.950562 -1.164246,44.705811c-4.103149,7.474975 -10.945862,10.460205 -19.031769,10.835083c-6.314453,0.292968 -12.652221,0.09436 -18.979614,0.095337c-27.308075,0.004394 -54.616241,0.028442 -81.924194,-0.030762c-3.642823,-0.007813 -7.353668,-0.086426 -10.914093,-0.760376c-10.37378,-1.964111 -17.348633,-9.423828 -17.60257,-19.976807c-0.424499,-17.640014 -0.405456,-35.303466 -0.029877,-52.945556c0.23642,-11.104554 7.925293,-19.955017 19.115082,-20.908448c11.90033,-1.013977 23.951752,-0.399658 35.930786,-0.166381c1.540741,0.029968 3.042969,2.039672 4.634674,4.778564c-0.041748,7.25 -0.62915,12.893616 -0.162689,18.448669c0.792267,9.435242 7.398651,16.27594 16.801636,16.356995c24.439239,0.210938 48.884186,-0.243286 73.326874,-0.432129z" id="svg_21"/>
  <path stroke="null" fill="none" d="m648.494694,1445.98135c-0.110539,0.031109 -0.219361,0.04399 -0.328192,0.044056c-2.009279,0.001197 -4.018557,0.000884 -6.027837,0.000776c-0.069623,-0.000007 -0.139549,0.00262 -0.208815,-0.002443c-0.317267,-0.023218 -0.54427,-0.220987 -0.572095,-0.519833c-0.013889,-0.149162 0.009285,-0.301462 0.021649,-0.473845c0.582154,-0.024203 1.158352,-0.02883 1.734553,-0.029237c1.530193,-0.001082 3.060388,-0.000477 4.590583,-0.000035c0.09928,0.000028 0.199883,-0.004683 0.297588,0.008371c0.27586,0.036854 0.469184,0.228109 0.491564,0.493497c0.012698,0.150592 0.002566,0.302941 0.001003,0.478692l-0.000001,0.000001z" id="svg_22" stroke-width="0"/>
  <path fill="#FCFBF8" d="m435.73877,1028.867065c-24.499634,1.08252 -48.944581,1.536744 -73.38382,1.325806c-9.402985,-0.081055 -16.009369,-6.921753 -16.801636,-16.356995c-0.466461,-5.555053 0.120941,-11.198669 0.364014,-17.601135c23.336029,-0.970825 46.547363,-1.499878 69.746765,-1.175049c12.980011,0.181824 19.715332,7.828675 20.16864,20.974305c0.137055,3.97467 -0.016571,7.959289 -0.093963,12.833068z" id="svg_23"/>
  <path fill="#FCC00A" d="m1910.146484,1277.623901c6.434693,6.782959 14.345581,8.321167 23.526123,8.278687c57.629761,-0.267456 115.261719,-0.074219 173.841065,0.224365c0.962158,16.566528 1.108887,32.876343 0.949463,49.183228c-0.135254,13.807861 -7.103028,20.862793 -20.961914,20.879638c-76.218872,0.09314 -152.437867,0.106568 -228.656006,-0.124511c-4.348999,-0.013184 -8.690552,-2.428833 -13.013916,-4.80066c0.300659,-1.367187 0.579468,-1.6604 1.581665,-1.756836c4.708618,1.59314 7.620483,-0.166137 10.665039,-2.632324c19.225098,-15.573242 35.859253,-33.664917 51.818359,-52.46228c3.668946,-4.321655 4.168824,-8.047852 0.046143,-12.869019c0.088989,-1.829467 0.146484,-2.874877 0.203979,-3.920288z" id="svg_24"/>
  <path fill="#FFC109" d="m1910.069214,1276.818848c0.019775,1.850464 -0.03772,2.895874 -0.836792,4.760376c-5.140747,3.561157 -9.922852,5.842529 -13.873535,9.124511c-17.902222,14.871827 -33.388428,32.17627 -49.700074,49.40564c-2.977905,-0.06897 -5.143188,-0.09375 -7.308471,-0.118408c-0.220581,-3.29895 -0.63208,-6.597779 -0.633667,-9.896729c-0.036011,-73.418335 -0.027222,-146.836548 -0.025635,-220.254883c0.000122,-1.66101 -0.063477,-3.326782 0.036255,-4.982299c0.656738,-10.901123 5.625488,-16.476197 18.053955,-18.272095c8.786987,1.537109 16.274292,3.158813 23.778809,3.243408c9.532837,0.107666 19.079834,-1.031372 28.620727,-1.632812c0.031983,57.704101 0.022827,115.408325 0.170044,173.11206c0.012451,4.903443 1.069336,9.804077 1.718384,15.511231z" id="svg_25"/>
  <path fill="#FCC00A" d="m1908.496582,1088.198486c-9.856689,0.598511 -19.403686,1.737549 -28.936523,1.629883c-7.504517,-0.084595 -14.991822,-1.706299 -23.010132,-3.207031c1.35376,-1.038941 3.227295,-1.911987 5.108764,-1.929199c12.991089,-0.118897 25.985108,-0.14917 38.975098,0.019287c2.574341,0.033325 5.135864,1.049438 8.365112,2.12268c0.519165,0.934327 0.236451,1.219971 -0.502319,1.36438z" id="svg_26"/>
  <path fill="#FCC00A" d="m1838.330566,1340.682129c2.185059,-0.666504 4.350342,-0.641724 7.170411,0.195312c0.832885,3.352784 1.010742,5.893189 1.18872,8.433716c-0.27893,0.293091 -0.557739,0.586304 -1.267212,1.318726c-2.657714,-2.792725 -4.884643,-6.024658 -7.091919,-9.947754z" id="svg_27"/>
  <path fill="#FEC10B" d="m2260.908447,964.621826c3.370606,0.474793 3.65918,2.361389 1.317139,5.182068c-0.876953,-1.307922 -1.231934,-2.943481 -1.317139,-5.182068z" id="svg_28"/>
  <path fill="#FEC10B" d="m2255.050293,1493.007202c-0.103272,0.067017 0.103027,-0.067016 0,0z" id="svg_29"/>
  <path fill="#FEC10A" d="m1483.112915,1496.803711c0.057861,0.110718 -0.057861,-0.110718 0,0z" id="svg_30"/>
  <path fill="#626058" d="m3134.081055,981.953796c-24.189453,4.315857 -47.747803,5.422364 -71.385987,5.480408c-1.66333,0.004028 -3.349365,0.16095 -4.985839,-0.052429c-4.722901,-0.61615 -8.139405,-3.988953 -8.629151,-8.310181c-0.481689,-4.250732 2.076904,-7.839966 7.544678,-8.804443c13.084717,-2.308045 26.193603,-4.814392 39.404297,-5.989075c19.189209,-1.706482 38.474853,-2.33551 57.723144,-3.353699c2.309571,-0.122131 4.707276,-0.109863 6.950928,0.36908c4.839111,1.033081 6.861816,4.374756 6.817627,9.523499c-0.041016,4.856262 -3.139893,6.178711 -6.997314,6.832824c-8.517334,1.444336 -17.046876,2.819092 -26.442383,4.304016z" id="svg_31"/>
  <path fill="#626058" d="m3138.48291,1300.270386c14.241211,-0.463867 27.535156,-1.100098 40.829102,-1.096802c3.88623,0.000977 9.081299,-1.120972 10.781494,4.752441c1.799805,6.217163 -0.432617,10.417481 -6.930664,11.619873c-12.414307,2.297242 -24.825684,5.00586 -37.365235,6.139405c-20.493896,1.852539 -41.088867,2.58789 -61.643066,3.768188c-1.320557,0.075806 -2.669922,0.041626 -3.97876,-0.138672c-4.584961,-0.631836 -7.237549,-3.460205 -7.611572,-7.907715c-0.347412,-4.1333 2.121338,-7.037963 5.859863,-8.31604c3.435059,-1.174194 7.078369,-1.88562 10.687744,-2.37915c16.130127,-2.205688 32.280518,-4.26062 49.371094,-6.441528z" id="svg_32"/>
  <path fill="#646054" d="m1160.17627,863.848633c3.236938,6.577209 0.141967,11.43695 -4.174805,16.504516c-15.11499,17.743958 -31.056763,34.628479 -49.072266,49.476685c-1.27893,1.054016 -2.545776,2.785339 -3.928833,2.903015c-2.367798,0.201416 -5.356567,0.069458 -7.067749,-1.245605c-1.296875,-0.996765 -1.799072,-4.292725 -1.235962,-6.130799c0.736573,-2.404724 2.725342,-4.504394 4.427735,-6.522339c14.813842,-17.559692 30.980468,-33.793579 48.629272,-48.489685c3.17981,-2.647827 7.444214,-3.993103 11.891846,-6.270324c0.683838,-0.330567 0.45581,-0.071595 0.530762,-0.225464z" id="svg_33"/>
  <path fill="#646054" d="m1174.013916,1277.953125c0.694336,5.540894 -1.368286,9.726563 -5.105713,14.109497c-13.573242,15.918091 -27.547974,31.389771 -43.489624,44.991089c-3.024658,2.58081 -6.071411,5.144287 -9.225708,7.562134c-2.784546,2.134643 -5.601929,1.747314 -8.060425,-0.636719c-2.569214,-2.491211 -2.585693,-5.338623 -0.384033,-8.003052c4.01062,-4.853393 7.874878,-9.885376 12.343872,-14.291504c14.15625,-13.956909 28.615235,-27.606079 42.832642,-41.501465c3.055786,-2.986572 6.15271,-3.494262 10.51477,-2.006347c0.657715,-0.213013 0.558472,-0.172608 0.574219,-0.223633z" id="svg_34"/>
  <path fill="#626058" d="m1544.108154,1291.531494c6.974854,4.189575 7.619995,5.515869 3.229859,10.937134c-16.247681,20.062988 -33.946411,38.737793 -54.038086,55.047729c-2.843018,2.30774 -5.712036,3.296143 -9.226929,-0.527587c-0.205688,-3.145508 -0.094116,-5.045044 0.017334,-6.944703c0,0 -0.090942,-0.042602 0.52124,-0.023071c0.890137,-0.651001 1.167969,-1.321411 1.445801,-1.991821c0,0 -0.057373,-0.029175 0.514893,-0.066773c0.868652,-0.679199 1.165039,-1.320678 1.461425,-1.962158c0,0 -0.035034,-0.005981 0.524414,-0.051391c0.848999,-0.687256 1.138672,-1.329224 1.428345,-1.97107c0,0 0.010498,0.022217 0.544556,-0.054199c0.829346,-0.70813 1.124634,-1.339966 1.419922,-1.971802c0,0 0.049072,0.048218 0.650634,-0.170654c1.563721,-2.056274 2.525879,-3.893799 3.488038,-5.731323c-0.000122,0 -0.084717,-0.05481 0.523925,-0.031739c0.891114,-0.644653 1.173584,-1.312255 1.456055,-1.97998c0,0 -0.063721,-0.044922 0.631958,-0.199463c0.913086,-1.035156 1.130371,-1.915894 1.347778,-2.796509c0,0 0.632325,-0.674804 1.498291,-0.83789c1.407471,-0.852295 1.948853,-1.541382 2.490235,-2.230591c0,0 -0.05542,0.008179 0.487427,-0.061402c0.860473,-0.697143 1.1781,-1.324707 1.495727,-1.95227c0.000122,0 -0.040527,0.020386 0.498291,-0.047607c0.856812,-0.696534 1.175049,-1.325196 1.493286,-1.953858c0,0 -0.027221,0.026856 0.507691,-0.04602c0.852417,-0.700684 1.170166,-1.328492 1.487915,-1.956299c0,0 -0.017945,0.034179 0.509521,-0.046509c0.845703,-0.705444 1.163819,-1.329956 1.481934,-1.95459c0,0 0.000366,0.044922 0.526733,-0.034912c0.83728,-0.70752 1.148194,-1.335083 1.459229,-1.962646c0,0 0.019287,0.047363 0.5448,-0.038086c0.836059,-0.712891 1.146728,-1.340455 1.457153,-1.96814c0,0 0.017334,0.053589 0.526123,-0.054565c0.831909,-0.722168 1.154907,-1.335938 1.477905,-1.949708c0,0 0.013306,0.057862 0.522583,-0.047729c0.840943,-0.71875 1.172608,-1.331787 1.504395,-1.944824c0,0 -0.033081,0.030884 0.491577,-0.051636c0.862549,-0.695923 1.200561,-1.309204 1.538452,-1.922607c0,0 -0.066284,0.000854 0.480957,-0.051636c0.877808,-0.674072 1.20813,-1.295532 1.538574,-1.917114c0,0 -0.074951,-0.020386 0.490479,-0.054566c0.885986,-0.660278 1.206665,-1.286377 1.527344,-1.912353c0,0 -0.086426,-0.044556 0.610595,0.023803c3.565308,-2.661132 6.433472,-5.390503 9.301758,-8.119873c0,0 0.006592,0.056885 0.53125,-0.022461c0.85376,-0.700073 1.182861,-1.320678 1.512085,-1.941284c0,0 -0.055664,0.000611 0.49646,-0.049194c0.875244,-0.675537 1.19812,-1.30127 1.521118,-1.927124c0,0 -0.067383,-0.016968 0.578858,-0.004028c1.587524,-0.815796 2.528808,-1.64441 3.470092,-2.472901z" id="svg_35"/>
  <path fill="#D1BE84" d="m1535.316528,1297.922119c-2.186523,2.755737 -5.054687,5.485108 -8.603637,8.192139c2.186889,-2.754395 5.054443,-5.48645 8.603637,-8.192139z" id="svg_36"/>
  <path fill="#D1BE84" d="m1483.505493,1350.323364c0.473389,1.620362 0.361817,3.519898 0.076294,6.09314c-0.336426,-1.489014 -0.498779,-3.651367 -0.076294,-6.09314z" id="svg_37"/>
  <path fill="#D1BE84" d="m1495.458008,1336.249756c-0.330567,1.637573 -1.292725,3.475098 -2.885132,5.512085c0.331055,-1.637695 1.292358,-3.474976 2.885132,-5.512085z" id="svg_38"/>
  <path fill="#D1BE84" d="m1543.709961,1291.250122c-0.543091,1.109863 -1.484375,1.938477 -3.065674,2.78833c0.462402,-1.009033 1.564942,-2.039306 3.065674,-2.78833z" id="svg_39"/>
  <path fill="#D1BE84" d="m1497.544922,1334.149902c0.242187,0.555909 -0.040283,1.223511 -0.903565,1.909668c-0.260986,-0.587036 0.05896,-1.192505 0.903565,-1.909668z" id="svg_40"/>
  <path fill="#D1BE84" d="m1539.503906,1294.080078c0.2323,0.554199 -0.090576,1.179932 -0.967529,1.883301c-0.231934,-0.552124 0.09021,-1.181885 0.967529,-1.883301z" id="svg_41"/>
  <path fill="#D1BE84" d="m1485.521729,1348.119385c0.257812,0.5802 -0.02002,1.25061 -0.875977,1.938965c-0.271973,-0.604371 0.034058,-1.226685 0.875977,-1.938965z" id="svg_42"/>
  <path fill="#D1BE84" d="m1487.471191,1346.055908c0.266114,0.585816 -0.030273,1.227295 -0.881836,1.93396c-0.263549,-0.582764 0.027955,-1.230469 0.881836,-1.93396z" id="svg_43"/>
  <path fill="#D1BE84" d="m1489.424072,1344.030518c0.272705,0.589111 -0.016968,1.231079 -0.864258,1.935546c-0.271118,-0.586059 0.015503,-1.234497 0.864258,-1.935546z" id="svg_44"/>
  <path fill="#D1BE84" d="m1491.383057,1341.987793c0.272583,0.595825 -0.022705,1.227661 -0.864746,1.928833c-0.265503,-0.584717 0.015625,-1.23877 0.864746,-1.928833z" id="svg_45"/>
  <path fill="#D1BE84" d="m1537.482422,1296.04541c0.22998,0.559937 -0.099121,1.180542 -0.980347,1.87207c-0.227661,-0.556518 0.096802,-1.183959 0.980347,-1.87207z" id="svg_46"/>
  <path fill="#D1BE84" d="m1525.557129,1306.153198c0.20813,0.517334 -0.112549,1.143433 -0.991699,1.841919c-0.218018,-0.529419 0.122558,-1.131347 0.991699,-1.841919z" id="svg_47"/>
  <path fill="#D1BE84" d="m1521.50293,1310.074463c0.207763,0.519165 -0.130249,1.132446 -1.008789,1.843994c-0.206055,-0.517822 0.12854,-1.133789 1.008789,-1.843994z" id="svg_48"/>
  <path fill="#D1BE84" d="m1523.526367,1308.108154c0.211304,0.524903 -0.119018,1.146363 -0.999023,1.853516c-0.214112,-0.528687 0.121582,-1.1427 0.999023,-1.853516z" id="svg_49"/>
  <path fill="#D1BE84" d="m1499.578857,1331.457031c0.253052,0.465698 0.035767,1.346436 -0.861328,2.416504c-0.322998,-0.540893 0.033814,-1.27124 0.861328,-2.416504z" id="svg_50"/>
  <path fill="#D1BE84" d="m1503.414185,1328.099854c0.082275,0.562988 -0.459107,1.252075 -1.706055,1.937988c-0.109619,-0.606079 0.48645,-1.208863 1.706055,-1.937988z" id="svg_51"/>
  <path fill="#D1BE84" d="m1505.46521,1326.041748c0.238159,0.545776 -0.079468,1.17334 -0.942749,1.898438c-0.234619,-0.540406 0.076172,-1.178467 0.942749,-1.898438z" id="svg_52"/>
  <path fill="#D1BE84" d="m1507.455444,1324.03125c0.238892,0.555908 -0.079345,1.18457 -0.946411,1.901611c-0.236084,-0.550659 0.076538,-1.189819 0.946411,-1.901611z" id="svg_53"/>
  <path fill="#D1BE84" d="m1509.449707,1322.026855c0.240723,0.557129 -0.077026,1.184937 -0.942871,1.899415c-0.237305,-0.551758 0.073608,-1.190186 0.942871,-1.899415z" id="svg_54"/>
  <path fill="#D1BE84" d="m1511.442749,1320.026611c0.23877,0.553101 -0.079346,1.177613 -0.942139,1.892334c-0.234619,-0.546753 0.075318,-1.183716 0.942139,-1.892334z" id="svg_55"/>
  <path fill="#D1BE84" d="m1513.424072,1318.014282c0.250489,0.570801 -0.060425,1.198364 -0.920166,1.905518c-0.246216,-0.563233 0.056275,-1.205933 0.920166,-1.905518z" id="svg_56"/>
  <path fill="#D1BE84" d="m1515.42627,1316.008057c0.250854,0.570922 -0.059815,1.198486 -0.919678,1.901977c-0.246704,-0.564453 0.055786,-1.204712 0.919678,-1.901977z" id="svg_57"/>
  <path fill="#D1BE84" d="m1517.43457,1314.014893c0.234009,0.545898 -0.088989,1.159668 -0.947632,1.874267c-0.226928,-0.534912 0.08191,-1.170654 0.947632,-1.874267z" id="svg_58"/>
  <path fill="#D1BE84" d="m1519.462646,1312.030273c0.224122,0.537232 -0.107543,1.150269 -0.977417,1.862427c-0.218261,-0.529541 0.101685,-1.157959 0.977417,-1.862427z" id="svg_59"/>
  <path fill="#646054" d="m607.536133,835.507019c14.575012,-17.516418 30.979431,-32.128357 47.833496,-46.257324c7.251648,-6.079163 7.759155,-5.891358 14.54425,3.230163c-9.760864,11.253479 -19.283142,23.185486 -29.833862,34.125611c-10.385315,10.768615 -21.687988,20.671081 -32.831116,30.683288c-6.756408,6.070679 -8.769531,5.413208 -14.720398,-4.167541c4.710328,-5.527588 9.629212,-11.299988 15.00763,-17.614197z" id="svg_60"/>
  <path fill="#646054" d="m1847.412842,1349.507812c-0.901123,-2.737182 -1.07898,-5.277587 -1.099121,-8.586181c15.656738,-18.041626 31.142944,-35.346069 49.045166,-50.217896c3.950683,-3.281982 8.732788,-5.563354 13.842041,-8.340454c4.864258,4.002075 4.36438,7.728272 0.695434,12.049927c-15.959106,18.797363 -32.593261,36.889038 -51.818359,52.46228c-3.044556,2.466187 -5.956421,4.225464 -10.665161,2.632324z" id="svg_61"/>
 </g>
</svg>